<mxfile host="app.diagrams.net" agent="Mozilla/5.0 (Macintosh; Intel Mac OS X 10_15_7) AppleWebKit/537.36 (KHTML, like Gecko) Chrome/130.0.0.0 Safari/537.36" version="24.8.3">
  <diagram name="Page-1" id="aSCfSjatDF3S6KaWZVDX">
    <mxGraphModel dx="984" dy="658" grid="1" gridSize="10" guides="1" tooltips="1" connect="1" arrows="1" fold="1" page="1" pageScale="1" pageWidth="850" pageHeight="1100" math="0" shadow="0">
      <root>
        <mxCell id="0" />
        <mxCell id="1" parent="0" />
        <mxCell id="HzYAhnmNVsuKHYbPRYyc-1" value="&lt;font style=&quot;font-size: 14px;&quot;&gt;User&lt;/font&gt;" style="rounded=0;whiteSpace=wrap;html=1;" vertex="1" parent="1">
          <mxGeometry x="30" y="85" width="120" height="60" as="geometry" />
        </mxCell>
        <mxCell id="HzYAhnmNVsuKHYbPRYyc-2" value="1.1&lt;div&gt;Login/Signup&lt;/div&gt;" style="ellipse;whiteSpace=wrap;html=1;aspect=fixed;" vertex="1" parent="1">
          <mxGeometry x="320" y="70" width="90" height="90" as="geometry" />
        </mxCell>
        <mxCell id="HzYAhnmNVsuKHYbPRYyc-5" value="" style="endArrow=classic;html=1;rounded=0;exitX=1;exitY=0.5;exitDx=0;exitDy=0;entryX=0;entryY=0.5;entryDx=0;entryDy=0;" edge="1" parent="1" source="HzYAhnmNVsuKHYbPRYyc-1" target="HzYAhnmNVsuKHYbPRYyc-2">
          <mxGeometry width="50" height="50" relative="1" as="geometry">
            <mxPoint x="220" y="100" as="sourcePoint" />
            <mxPoint x="270" y="50" as="targetPoint" />
          </mxGeometry>
        </mxCell>
        <mxCell id="HzYAhnmNVsuKHYbPRYyc-6" value="Selecting option" style="text;html=1;align=center;verticalAlign=middle;whiteSpace=wrap;rounded=0;" vertex="1" parent="1">
          <mxGeometry x="190" y="85" width="100" height="30" as="geometry" />
        </mxCell>
        <mxCell id="HzYAhnmNVsuKHYbPRYyc-7" value="&lt;font style=&quot;font-size: 12px;&quot;&gt;1.2&lt;/font&gt;&lt;div style=&quot;&quot;&gt;&lt;font style=&quot;font-size: 12px;&quot;&gt;Enter Credentials&lt;/font&gt;&lt;/div&gt;" style="ellipse;whiteSpace=wrap;html=1;aspect=fixed;" vertex="1" parent="1">
          <mxGeometry x="520" y="70" width="87.5" height="87.5" as="geometry" />
        </mxCell>
        <mxCell id="HzYAhnmNVsuKHYbPRYyc-9" value="" style="endArrow=classic;html=1;rounded=0;exitX=1;exitY=0.5;exitDx=0;exitDy=0;entryX=0;entryY=0.5;entryDx=0;entryDy=0;" edge="1" parent="1" source="HzYAhnmNVsuKHYbPRYyc-2" target="HzYAhnmNVsuKHYbPRYyc-7">
          <mxGeometry width="50" height="50" relative="1" as="geometry">
            <mxPoint x="430" y="90" as="sourcePoint" />
            <mxPoint x="480" y="40" as="targetPoint" />
          </mxGeometry>
        </mxCell>
        <mxCell id="HzYAhnmNVsuKHYbPRYyc-10" value="Login" style="text;html=1;align=center;verticalAlign=middle;whiteSpace=wrap;rounded=0;" vertex="1" parent="1">
          <mxGeometry x="430" y="90" width="60" height="30" as="geometry" />
        </mxCell>
        <mxCell id="HzYAhnmNVsuKHYbPRYyc-11" value="1.2&lt;div&gt;Enter credentials&lt;/div&gt;" style="ellipse;whiteSpace=wrap;html=1;aspect=fixed;" vertex="1" parent="1">
          <mxGeometry x="320" y="250" width="90" height="90" as="geometry" />
        </mxCell>
        <mxCell id="HzYAhnmNVsuKHYbPRYyc-12" value="" style="endArrow=classic;html=1;rounded=0;exitX=0.5;exitY=1;exitDx=0;exitDy=0;entryX=0.5;entryY=0;entryDx=0;entryDy=0;" edge="1" parent="1" source="HzYAhnmNVsuKHYbPRYyc-2" target="HzYAhnmNVsuKHYbPRYyc-11">
          <mxGeometry width="50" height="50" relative="1" as="geometry">
            <mxPoint x="440" y="320" as="sourcePoint" />
            <mxPoint x="490" y="270" as="targetPoint" />
          </mxGeometry>
        </mxCell>
        <mxCell id="HzYAhnmNVsuKHYbPRYyc-13" value="Signup" style="text;html=1;align=center;verticalAlign=middle;whiteSpace=wrap;rounded=0;" vertex="1" parent="1">
          <mxGeometry x="360" y="180" width="60" height="30" as="geometry" />
        </mxCell>
        <mxCell id="HzYAhnmNVsuKHYbPRYyc-14" value="User Database" style="shape=partialRectangle;whiteSpace=wrap;html=1;left=0;right=0;fillColor=none;" vertex="1" parent="1">
          <mxGeometry x="665" y="280" width="120" height="30" as="geometry" />
        </mxCell>
        <mxCell id="HzYAhnmNVsuKHYbPRYyc-17" value="1.3&lt;div&gt;Match Credentials&lt;/div&gt;" style="ellipse;whiteSpace=wrap;html=1;aspect=fixed;" vertex="1" parent="1">
          <mxGeometry x="680" y="67.5" width="90" height="90" as="geometry" />
        </mxCell>
        <mxCell id="HzYAhnmNVsuKHYbPRYyc-18" value="" style="endArrow=classic;html=1;rounded=0;exitX=1;exitY=0.5;exitDx=0;exitDy=0;entryX=0;entryY=0.5;entryDx=0;entryDy=0;" edge="1" parent="1" source="HzYAhnmNVsuKHYbPRYyc-7" target="HzYAhnmNVsuKHYbPRYyc-17">
          <mxGeometry width="50" height="50" relative="1" as="geometry">
            <mxPoint x="595" y="210" as="sourcePoint" />
            <mxPoint x="645" y="160" as="targetPoint" />
          </mxGeometry>
        </mxCell>
        <mxCell id="HzYAhnmNVsuKHYbPRYyc-19" value="1.3&lt;div&gt;Register Credentials&lt;/div&gt;" style="ellipse;whiteSpace=wrap;html=1;aspect=fixed;" vertex="1" parent="1">
          <mxGeometry x="523.75" y="250" width="90" height="90" as="geometry" />
        </mxCell>
        <mxCell id="HzYAhnmNVsuKHYbPRYyc-20" value="" style="endArrow=classic;html=1;rounded=0;exitX=1;exitY=0.5;exitDx=0;exitDy=0;entryX=0;entryY=0.5;entryDx=0;entryDy=0;" edge="1" parent="1" source="HzYAhnmNVsuKHYbPRYyc-11" target="HzYAhnmNVsuKHYbPRYyc-19">
          <mxGeometry width="50" height="50" relative="1" as="geometry">
            <mxPoint x="440" y="310" as="sourcePoint" />
            <mxPoint x="490" y="260" as="targetPoint" />
          </mxGeometry>
        </mxCell>
        <mxCell id="HzYAhnmNVsuKHYbPRYyc-22" value="" style="endArrow=classic;html=1;rounded=0;exitX=0.5;exitY=1;exitDx=0;exitDy=0;entryX=0.5;entryY=1;entryDx=0;entryDy=0;" edge="1" parent="1" source="HzYAhnmNVsuKHYbPRYyc-19" target="HzYAhnmNVsuKHYbPRYyc-14">
          <mxGeometry width="50" height="50" relative="1" as="geometry">
            <mxPoint x="630" y="400" as="sourcePoint" />
            <mxPoint x="680" y="350" as="targetPoint" />
            <Array as="points">
              <mxPoint x="725" y="340" />
            </Array>
          </mxGeometry>
        </mxCell>
        <mxCell id="HzYAhnmNVsuKHYbPRYyc-23" value="Add to Database" style="text;html=1;align=center;verticalAlign=middle;whiteSpace=wrap;rounded=0;" vertex="1" parent="1">
          <mxGeometry x="630" y="340" width="60" height="30" as="geometry" />
        </mxCell>
        <mxCell id="HzYAhnmNVsuKHYbPRYyc-24" value="" style="endArrow=classic;html=1;rounded=0;exitX=0.25;exitY=0;exitDx=0;exitDy=0;entryX=0.5;entryY=0;entryDx=0;entryDy=0;" edge="1" parent="1" source="HzYAhnmNVsuKHYbPRYyc-14" target="HzYAhnmNVsuKHYbPRYyc-19">
          <mxGeometry width="50" height="50" relative="1" as="geometry">
            <mxPoint x="630" y="230" as="sourcePoint" />
            <mxPoint x="680" y="180" as="targetPoint" />
            <Array as="points">
              <mxPoint x="695" y="230" />
              <mxPoint x="569" y="230" />
            </Array>
          </mxGeometry>
        </mxCell>
        <mxCell id="HzYAhnmNVsuKHYbPRYyc-25" value="Registration Status" style="text;html=1;align=center;verticalAlign=middle;whiteSpace=wrap;rounded=0;" vertex="1" parent="1">
          <mxGeometry x="570" y="200" width="110" height="30" as="geometry" />
        </mxCell>
        <mxCell id="HzYAhnmNVsuKHYbPRYyc-26" value="" style="endArrow=classic;html=1;rounded=0;exitX=0;exitY=1;exitDx=0;exitDy=0;entryX=0.5;entryY=1;entryDx=0;entryDy=0;" edge="1" parent="1" source="HzYAhnmNVsuKHYbPRYyc-19" target="HzYAhnmNVsuKHYbPRYyc-1">
          <mxGeometry width="50" height="50" relative="1" as="geometry">
            <mxPoint x="440" y="310" as="sourcePoint" />
            <mxPoint x="150" y="410" as="targetPoint" />
            <Array as="points">
              <mxPoint x="537" y="380" />
              <mxPoint x="90" y="380" />
            </Array>
          </mxGeometry>
        </mxCell>
        <mxCell id="HzYAhnmNVsuKHYbPRYyc-27" value="Registration Status" style="text;html=1;align=center;verticalAlign=middle;whiteSpace=wrap;rounded=0;" vertex="1" parent="1">
          <mxGeometry x="230" y="350" width="110" height="30" as="geometry" />
        </mxCell>
        <mxCell id="HzYAhnmNVsuKHYbPRYyc-28" value="" style="endArrow=classic;html=1;rounded=0;exitX=0.5;exitY=1;exitDx=0;exitDy=0;" edge="1" parent="1" source="HzYAhnmNVsuKHYbPRYyc-17" target="HzYAhnmNVsuKHYbPRYyc-14">
          <mxGeometry width="50" height="50" relative="1" as="geometry">
            <mxPoint x="760" y="220" as="sourcePoint" />
            <mxPoint x="760" y="240" as="targetPoint" />
          </mxGeometry>
        </mxCell>
        <mxCell id="HzYAhnmNVsuKHYbPRYyc-29" value="Fetch credential" style="text;html=1;align=center;verticalAlign=middle;whiteSpace=wrap;rounded=0;" vertex="1" parent="1">
          <mxGeometry x="665" y="170" width="60" height="30" as="geometry" />
        </mxCell>
        <mxCell id="HzYAhnmNVsuKHYbPRYyc-31" value="" style="endArrow=classic;html=1;rounded=0;exitX=1;exitY=0;exitDx=0;exitDy=0;entryX=1;entryY=0.5;entryDx=0;entryDy=0;" edge="1" parent="1" source="HzYAhnmNVsuKHYbPRYyc-14" target="HzYAhnmNVsuKHYbPRYyc-17">
          <mxGeometry width="50" height="50" relative="1" as="geometry">
            <mxPoint x="770" y="250" as="sourcePoint" />
            <mxPoint x="820" y="200" as="targetPoint" />
            <Array as="points">
              <mxPoint x="800" y="200" />
              <mxPoint x="800" y="113" />
            </Array>
          </mxGeometry>
        </mxCell>
        <mxCell id="HzYAhnmNVsuKHYbPRYyc-32" value="Return Credential" style="text;html=1;align=center;verticalAlign=middle;whiteSpace=wrap;rounded=0;" vertex="1" parent="1">
          <mxGeometry x="740" y="160" width="60" height="30" as="geometry" />
        </mxCell>
        <mxCell id="HzYAhnmNVsuKHYbPRYyc-33" value="" style="endArrow=classic;html=1;rounded=0;exitX=0.5;exitY=0;exitDx=0;exitDy=0;entryX=0.5;entryY=0;entryDx=0;entryDy=0;" edge="1" parent="1" source="HzYAhnmNVsuKHYbPRYyc-17" target="HzYAhnmNVsuKHYbPRYyc-1">
          <mxGeometry width="50" height="50" relative="1" as="geometry">
            <mxPoint x="620" y="50" as="sourcePoint" />
            <mxPoint x="670" as="targetPoint" />
            <Array as="points">
              <mxPoint x="725" y="50" />
              <mxPoint x="90" y="50" />
            </Array>
          </mxGeometry>
        </mxCell>
        <mxCell id="HzYAhnmNVsuKHYbPRYyc-34" value="Login Status" style="text;html=1;align=center;verticalAlign=middle;whiteSpace=wrap;rounded=0;" vertex="1" parent="1">
          <mxGeometry x="370" y="20" width="70" height="30" as="geometry" />
        </mxCell>
        <mxCell id="HzYAhnmNVsuKHYbPRYyc-35" value="&lt;font style=&quot;font-size: 14px;&quot;&gt;User&lt;/font&gt;" style="rounded=0;whiteSpace=wrap;html=1;" vertex="1" parent="1">
          <mxGeometry x="40" y="450" width="120" height="60" as="geometry" />
        </mxCell>
        <mxCell id="HzYAhnmNVsuKHYbPRYyc-36" value="2.1&lt;div&gt;Load Problem&lt;/div&gt;" style="ellipse;whiteSpace=wrap;html=1;aspect=fixed;" vertex="1" parent="1">
          <mxGeometry x="290" y="435" width="90" height="90" as="geometry" />
        </mxCell>
        <mxCell id="HzYAhnmNVsuKHYbPRYyc-37" value="" style="endArrow=classic;html=1;rounded=0;exitX=1;exitY=0.5;exitDx=0;exitDy=0;entryX=0;entryY=0.5;entryDx=0;entryDy=0;" edge="1" parent="1" source="HzYAhnmNVsuKHYbPRYyc-35" target="HzYAhnmNVsuKHYbPRYyc-36">
          <mxGeometry width="50" height="50" relative="1" as="geometry">
            <mxPoint x="440" y="620" as="sourcePoint" />
            <mxPoint x="490" y="570" as="targetPoint" />
          </mxGeometry>
        </mxCell>
        <mxCell id="HzYAhnmNVsuKHYbPRYyc-38" value="Select Problem" style="text;html=1;align=center;verticalAlign=middle;whiteSpace=wrap;rounded=0;" vertex="1" parent="1">
          <mxGeometry x="190" y="480" width="60" height="30" as="geometry" />
        </mxCell>
        <mxCell id="HzYAhnmNVsuKHYbPRYyc-39" value="Problems Database" style="shape=partialRectangle;whiteSpace=wrap;html=1;left=0;right=0;fillColor=none;" vertex="1" parent="1">
          <mxGeometry x="460" y="465" width="120" height="30" as="geometry" />
        </mxCell>
        <mxCell id="HzYAhnmNVsuKHYbPRYyc-40" value="" style="edgeStyle=segmentEdgeStyle;endArrow=classic;html=1;curved=0;rounded=0;endSize=8;startSize=8;exitX=0.5;exitY=0;exitDx=0;exitDy=0;entryX=0.5;entryY=0;entryDx=0;entryDy=0;" edge="1" parent="1" source="HzYAhnmNVsuKHYbPRYyc-36" target="HzYAhnmNVsuKHYbPRYyc-39">
          <mxGeometry width="50" height="50" relative="1" as="geometry">
            <mxPoint x="440" y="660" as="sourcePoint" />
            <mxPoint x="490" y="690" as="targetPoint" />
          </mxGeometry>
        </mxCell>
        <mxCell id="HzYAhnmNVsuKHYbPRYyc-41" value="" style="edgeStyle=segmentEdgeStyle;endArrow=classic;html=1;curved=0;rounded=0;endSize=8;startSize=8;entryX=0.5;entryY=1;entryDx=0;entryDy=0;" edge="1" parent="1" target="HzYAhnmNVsuKHYbPRYyc-36">
          <mxGeometry width="50" height="50" relative="1" as="geometry">
            <mxPoint x="520" y="560" as="sourcePoint" />
            <mxPoint x="490" y="620" as="targetPoint" />
          </mxGeometry>
        </mxCell>
        <mxCell id="HzYAhnmNVsuKHYbPRYyc-42" value="" style="endArrow=none;html=1;rounded=0;entryX=0.5;entryY=1;entryDx=0;entryDy=0;" edge="1" parent="1" target="HzYAhnmNVsuKHYbPRYyc-39">
          <mxGeometry width="50" height="50" relative="1" as="geometry">
            <mxPoint x="520" y="560" as="sourcePoint" />
            <mxPoint x="490" y="620" as="targetPoint" />
          </mxGeometry>
        </mxCell>
        <mxCell id="HzYAhnmNVsuKHYbPRYyc-43" value="Fetch Problem" style="text;html=1;align=center;verticalAlign=middle;whiteSpace=wrap;rounded=0;" vertex="1" parent="1">
          <mxGeometry x="390" y="410" width="90" height="30" as="geometry" />
        </mxCell>
        <mxCell id="HzYAhnmNVsuKHYbPRYyc-44" value="Return Problem Description" style="text;html=1;align=center;verticalAlign=middle;whiteSpace=wrap;rounded=0;" vertex="1" parent="1">
          <mxGeometry x="355" y="535" width="150" height="30" as="geometry" />
        </mxCell>
        <mxCell id="HzYAhnmNVsuKHYbPRYyc-45" value="2.3&lt;div&gt;Submit Solution&lt;/div&gt;" style="ellipse;whiteSpace=wrap;html=1;aspect=fixed;" vertex="1" parent="1">
          <mxGeometry x="55" y="640" width="90" height="90" as="geometry" />
        </mxCell>
        <mxCell id="HzYAhnmNVsuKHYbPRYyc-48" value="2.4&lt;div&gt;Check Solution&lt;/div&gt;" style="ellipse;whiteSpace=wrap;html=1;aspect=fixed;" vertex="1" parent="1">
          <mxGeometry x="290" y="640" width="90" height="90" as="geometry" />
        </mxCell>
        <mxCell id="HzYAhnmNVsuKHYbPRYyc-49" value="" style="endArrow=classic;html=1;rounded=0;exitX=1;exitY=0.5;exitDx=0;exitDy=0;entryX=0;entryY=0.5;entryDx=0;entryDy=0;" edge="1" parent="1" source="HzYAhnmNVsuKHYbPRYyc-45" target="HzYAhnmNVsuKHYbPRYyc-48">
          <mxGeometry width="50" height="50" relative="1" as="geometry">
            <mxPoint x="440" y="670" as="sourcePoint" />
            <mxPoint x="490" y="620" as="targetPoint" />
          </mxGeometry>
        </mxCell>
        <mxCell id="HzYAhnmNVsuKHYbPRYyc-50" value="&lt;font style=&quot;font-size: 14px;&quot;&gt;Evaluator System&lt;/font&gt;" style="rounded=0;whiteSpace=wrap;html=1;" vertex="1" parent="1">
          <mxGeometry x="520" y="655" width="120" height="60" as="geometry" />
        </mxCell>
        <mxCell id="HzYAhnmNVsuKHYbPRYyc-51" value="" style="endArrow=classic;html=1;rounded=0;exitX=1;exitY=0;exitDx=0;exitDy=0;entryX=0;entryY=0;entryDx=0;entryDy=0;curved=1;" edge="1" parent="1" source="HzYAhnmNVsuKHYbPRYyc-48" target="HzYAhnmNVsuKHYbPRYyc-50">
          <mxGeometry width="50" height="50" relative="1" as="geometry">
            <mxPoint x="440" y="670" as="sourcePoint" />
            <mxPoint x="490" y="620" as="targetPoint" />
            <Array as="points">
              <mxPoint x="440" y="630" />
            </Array>
          </mxGeometry>
        </mxCell>
        <mxCell id="HzYAhnmNVsuKHYbPRYyc-52" value="Evaluate Solution" style="text;html=1;align=center;verticalAlign=middle;whiteSpace=wrap;rounded=0;" vertex="1" parent="1">
          <mxGeometry x="410" y="610" width="60" height="30" as="geometry" />
        </mxCell>
        <mxCell id="HzYAhnmNVsuKHYbPRYyc-54" value="" style="endArrow=classic;html=1;rounded=0;entryX=1;entryY=1;entryDx=0;entryDy=0;exitX=0;exitY=1;exitDx=0;exitDy=0;curved=1;" edge="1" parent="1" source="HzYAhnmNVsuKHYbPRYyc-50" target="HzYAhnmNVsuKHYbPRYyc-48">
          <mxGeometry width="50" height="50" relative="1" as="geometry">
            <mxPoint x="440" y="670" as="sourcePoint" />
            <mxPoint x="490" y="620" as="targetPoint" />
            <Array as="points">
              <mxPoint x="440" y="740" />
            </Array>
          </mxGeometry>
        </mxCell>
        <mxCell id="HzYAhnmNVsuKHYbPRYyc-55" value="Return Result" style="text;html=1;align=center;verticalAlign=middle;whiteSpace=wrap;rounded=0;" vertex="1" parent="1">
          <mxGeometry x="410" y="730" width="60" height="30" as="geometry" />
        </mxCell>
        <mxCell id="HzYAhnmNVsuKHYbPRYyc-56" value="Return Result" style="text;html=1;align=center;verticalAlign=middle;whiteSpace=wrap;rounded=0;rotation=0;" vertex="1" parent="1">
          <mxGeometry x="150" y="730" width="80" height="30" as="geometry" />
        </mxCell>
        <mxCell id="HzYAhnmNVsuKHYbPRYyc-57" value="" style="endArrow=classic;html=1;rounded=0;exitX=0.5;exitY=1;exitDx=0;exitDy=0;entryX=0.5;entryY=1;entryDx=0;entryDy=0;" edge="1" parent="1" source="HzYAhnmNVsuKHYbPRYyc-48" target="HzYAhnmNVsuKHYbPRYyc-35">
          <mxGeometry width="50" height="50" relative="1" as="geometry">
            <mxPoint x="230.00019484660527" y="770.0001948466052" as="sourcePoint" />
            <mxPoint x="87" y="550" as="targetPoint" />
            <Array as="points">
              <mxPoint x="335" y="760" />
              <mxPoint x="40" y="760" />
              <mxPoint x="40" y="560" />
              <mxPoint x="100" y="560" />
            </Array>
          </mxGeometry>
        </mxCell>
        <mxCell id="HzYAhnmNVsuKHYbPRYyc-58" value="&lt;font style=&quot;font-size: 14px;&quot;&gt;User&lt;/font&gt;" style="rounded=0;whiteSpace=wrap;html=1;" vertex="1" parent="1">
          <mxGeometry x="40" y="815" width="120" height="60" as="geometry" />
        </mxCell>
        <mxCell id="HzYAhnmNVsuKHYbPRYyc-59" value="3.1&lt;div&gt;Participate in contest&lt;/div&gt;" style="ellipse;whiteSpace=wrap;html=1;aspect=fixed;" vertex="1" parent="1">
          <mxGeometry x="280" y="800" width="90" height="90" as="geometry" />
        </mxCell>
        <mxCell id="HzYAhnmNVsuKHYbPRYyc-60" value="" style="endArrow=classic;html=1;rounded=0;exitX=1;exitY=0.5;exitDx=0;exitDy=0;entryX=0;entryY=0.5;entryDx=0;entryDy=0;" edge="1" parent="1" source="HzYAhnmNVsuKHYbPRYyc-58" target="HzYAhnmNVsuKHYbPRYyc-59">
          <mxGeometry width="50" height="50" relative="1" as="geometry">
            <mxPoint x="440" y="790" as="sourcePoint" />
            <mxPoint x="490" y="740" as="targetPoint" />
          </mxGeometry>
        </mxCell>
        <mxCell id="HzYAhnmNVsuKHYbPRYyc-61" value="Select Problem" style="text;html=1;align=center;verticalAlign=middle;whiteSpace=wrap;rounded=0;" vertex="1" parent="1">
          <mxGeometry x="400" y="815" width="60" height="30" as="geometry" />
        </mxCell>
        <mxCell id="HzYAhnmNVsuKHYbPRYyc-62" value="" style="endArrow=classic;html=1;rounded=0;exitX=1;exitY=0.5;exitDx=0;exitDy=0;entryX=0;entryY=0.5;entryDx=0;entryDy=0;" edge="1" parent="1" source="HzYAhnmNVsuKHYbPRYyc-59" target="HzYAhnmNVsuKHYbPRYyc-63">
          <mxGeometry width="50" height="50" relative="1" as="geometry">
            <mxPoint x="375" y="844.5" as="sourcePoint" />
            <mxPoint x="505" y="844.5" as="targetPoint" />
          </mxGeometry>
        </mxCell>
        <mxCell id="HzYAhnmNVsuKHYbPRYyc-63" value="3.2&lt;div&gt;Load Problem&lt;/div&gt;" style="ellipse;whiteSpace=wrap;html=1;aspect=fixed;" vertex="1" parent="1">
          <mxGeometry x="500" y="800" width="90" height="90" as="geometry" />
        </mxCell>
        <mxCell id="HzYAhnmNVsuKHYbPRYyc-64" value="Problems Database" style="shape=partialRectangle;whiteSpace=wrap;html=1;left=0;right=0;fillColor=none;" vertex="1" parent="1">
          <mxGeometry x="660" y="830" width="120" height="30" as="geometry" />
        </mxCell>
        <mxCell id="HzYAhnmNVsuKHYbPRYyc-65" value="" style="edgeStyle=segmentEdgeStyle;endArrow=classic;html=1;curved=0;rounded=0;endSize=8;startSize=8;exitX=0.5;exitY=0;exitDx=0;exitDy=0;entryX=0.5;entryY=0;entryDx=0;entryDy=0;" edge="1" parent="1" source="HzYAhnmNVsuKHYbPRYyc-63" target="HzYAhnmNVsuKHYbPRYyc-64">
          <mxGeometry width="50" height="50" relative="1" as="geometry">
            <mxPoint x="555" y="790" as="sourcePoint" />
            <mxPoint x="740" y="825" as="targetPoint" />
          </mxGeometry>
        </mxCell>
        <mxCell id="HzYAhnmNVsuKHYbPRYyc-66" value="Fetch Problem" style="text;html=1;align=center;verticalAlign=middle;whiteSpace=wrap;rounded=0;" vertex="1" parent="1">
          <mxGeometry x="590" y="770" width="90" height="30" as="geometry" />
        </mxCell>
        <mxCell id="HzYAhnmNVsuKHYbPRYyc-67" value="" style="edgeStyle=segmentEdgeStyle;endArrow=classic;html=1;curved=0;rounded=0;endSize=8;startSize=8;entryX=0.5;entryY=1;entryDx=0;entryDy=0;" edge="1" parent="1" target="HzYAhnmNVsuKHYbPRYyc-63">
          <mxGeometry width="50" height="50" relative="1" as="geometry">
            <mxPoint x="720" y="920" as="sourcePoint" />
            <mxPoint x="663.75" y="940" as="targetPoint" />
          </mxGeometry>
        </mxCell>
        <mxCell id="HzYAhnmNVsuKHYbPRYyc-68" value="" style="endArrow=none;html=1;rounded=0;entryX=0.5;entryY=1;entryDx=0;entryDy=0;" edge="1" parent="1" target="HzYAhnmNVsuKHYbPRYyc-64">
          <mxGeometry width="50" height="50" relative="1" as="geometry">
            <mxPoint x="720" y="920" as="sourcePoint" />
            <mxPoint x="715" y="890" as="targetPoint" />
          </mxGeometry>
        </mxCell>
        <mxCell id="HzYAhnmNVsuKHYbPRYyc-69" value="Return Problem Description" style="text;html=1;align=center;verticalAlign=middle;whiteSpace=wrap;rounded=0;" vertex="1" parent="1">
          <mxGeometry x="560" y="890" width="150" height="30" as="geometry" />
        </mxCell>
        <mxCell id="HzYAhnmNVsuKHYbPRYyc-70" value="2.2&lt;div&gt;Write Solution&lt;/div&gt;" style="ellipse;whiteSpace=wrap;html=1;aspect=fixed;" vertex="1" parent="1">
          <mxGeometry x="172.5" y="535" width="95" height="95" as="geometry" />
        </mxCell>
        <mxCell id="HzYAhnmNVsuKHYbPRYyc-71" value="" style="endArrow=classic;html=1;rounded=0;exitX=0;exitY=1;exitDx=0;exitDy=0;entryX=1;entryY=0;entryDx=0;entryDy=0;" edge="1" parent="1" source="HzYAhnmNVsuKHYbPRYyc-36" target="HzYAhnmNVsuKHYbPRYyc-70">
          <mxGeometry width="50" height="50" relative="1" as="geometry">
            <mxPoint x="440" y="690" as="sourcePoint" />
            <mxPoint x="490" y="640" as="targetPoint" />
          </mxGeometry>
        </mxCell>
        <mxCell id="HzYAhnmNVsuKHYbPRYyc-72" value="" style="endArrow=classic;html=1;rounded=0;exitX=0;exitY=0.5;exitDx=0;exitDy=0;entryX=0.5;entryY=0;entryDx=0;entryDy=0;" edge="1" parent="1" source="HzYAhnmNVsuKHYbPRYyc-70" target="HzYAhnmNVsuKHYbPRYyc-45">
          <mxGeometry width="50" height="50" relative="1" as="geometry">
            <mxPoint x="440" y="690" as="sourcePoint" />
            <mxPoint x="490" y="640" as="targetPoint" />
            <Array as="points">
              <mxPoint x="100" y="583" />
            </Array>
          </mxGeometry>
        </mxCell>
        <mxCell id="HzYAhnmNVsuKHYbPRYyc-73" value="3.3&lt;div&gt;Write Solution&lt;/div&gt;" style="ellipse;whiteSpace=wrap;html=1;aspect=fixed;" vertex="1" parent="1">
          <mxGeometry x="385" y="900" width="95" height="95" as="geometry" />
        </mxCell>
        <mxCell id="HzYAhnmNVsuKHYbPRYyc-74" value="" style="endArrow=classic;html=1;rounded=0;exitX=0;exitY=1;exitDx=0;exitDy=0;entryX=1;entryY=0;entryDx=0;entryDy=0;" edge="1" parent="1" source="HzYAhnmNVsuKHYbPRYyc-63" target="HzYAhnmNVsuKHYbPRYyc-73">
          <mxGeometry width="50" height="50" relative="1" as="geometry">
            <mxPoint x="460" y="870" as="sourcePoint" />
            <mxPoint x="510" y="820" as="targetPoint" />
          </mxGeometry>
        </mxCell>
        <mxCell id="HzYAhnmNVsuKHYbPRYyc-75" value="3.4&lt;div&gt;Submit Solution&lt;/div&gt;" style="ellipse;whiteSpace=wrap;html=1;aspect=fixed;" vertex="1" parent="1">
          <mxGeometry x="270" y="995" width="90" height="90" as="geometry" />
        </mxCell>
        <mxCell id="HzYAhnmNVsuKHYbPRYyc-76" value="" style="endArrow=classic;html=1;rounded=0;exitX=0;exitY=0.5;exitDx=0;exitDy=0;entryX=0.5;entryY=0;entryDx=0;entryDy=0;" edge="1" parent="1" source="HzYAhnmNVsuKHYbPRYyc-73" target="HzYAhnmNVsuKHYbPRYyc-75">
          <mxGeometry width="50" height="50" relative="1" as="geometry">
            <mxPoint x="460" y="960" as="sourcePoint" />
            <mxPoint x="510" y="910" as="targetPoint" />
            <Array as="points">
              <mxPoint x="315" y="948" />
            </Array>
          </mxGeometry>
        </mxCell>
        <mxCell id="HzYAhnmNVsuKHYbPRYyc-77" value="3.5&lt;div&gt;Check Solution&lt;/div&gt;" style="ellipse;whiteSpace=wrap;html=1;aspect=fixed;" vertex="1" parent="1">
          <mxGeometry x="490" y="995" width="90" height="90" as="geometry" />
        </mxCell>
        <mxCell id="HzYAhnmNVsuKHYbPRYyc-78" value="" style="endArrow=classic;html=1;rounded=0;exitX=1;exitY=0.5;exitDx=0;exitDy=0;entryX=0;entryY=0.5;entryDx=0;entryDy=0;" edge="1" parent="1" source="HzYAhnmNVsuKHYbPRYyc-75" target="HzYAhnmNVsuKHYbPRYyc-77">
          <mxGeometry width="50" height="50" relative="1" as="geometry">
            <mxPoint x="430" y="990" as="sourcePoint" />
            <mxPoint x="480" y="940" as="targetPoint" />
          </mxGeometry>
        </mxCell>
        <mxCell id="HzYAhnmNVsuKHYbPRYyc-79" value="3.6&lt;div&gt;Update ratings&lt;/div&gt;" style="ellipse;whiteSpace=wrap;html=1;aspect=fixed;" vertex="1" parent="1">
          <mxGeometry x="490" y="1130" width="90" height="90" as="geometry" />
        </mxCell>
        <mxCell id="HzYAhnmNVsuKHYbPRYyc-80" value="" style="endArrow=classic;html=1;rounded=0;exitX=0.5;exitY=1;exitDx=0;exitDy=0;entryX=0.5;entryY=0;entryDx=0;entryDy=0;" edge="1" parent="1" source="HzYAhnmNVsuKHYbPRYyc-77" target="HzYAhnmNVsuKHYbPRYyc-79">
          <mxGeometry width="50" height="50" relative="1" as="geometry">
            <mxPoint x="460" y="1000" as="sourcePoint" />
            <mxPoint x="510" y="950" as="targetPoint" />
          </mxGeometry>
        </mxCell>
        <mxCell id="HzYAhnmNVsuKHYbPRYyc-81" value="Evaluator System" style="rounded=0;whiteSpace=wrap;html=1;" vertex="1" parent="1">
          <mxGeometry x="660" y="1010" width="120" height="60" as="geometry" />
        </mxCell>
        <mxCell id="HzYAhnmNVsuKHYbPRYyc-82" value="Evaluate Solution" style="text;html=1;align=center;verticalAlign=middle;whiteSpace=wrap;rounded=0;" vertex="1" parent="1">
          <mxGeometry x="580" y="965" width="60" height="30" as="geometry" />
        </mxCell>
        <mxCell id="HzYAhnmNVsuKHYbPRYyc-83" value="" style="endArrow=classic;html=1;rounded=0;exitX=1;exitY=0;exitDx=0;exitDy=0;entryX=0;entryY=0;entryDx=0;entryDy=0;curved=1;" edge="1" parent="1" source="HzYAhnmNVsuKHYbPRYyc-77" target="HzYAhnmNVsuKHYbPRYyc-81">
          <mxGeometry width="50" height="50" relative="1" as="geometry">
            <mxPoint x="490" y="1100" as="sourcePoint" />
            <mxPoint x="540" y="1050" as="targetPoint" />
            <Array as="points">
              <mxPoint x="610" y="990" />
            </Array>
          </mxGeometry>
        </mxCell>
        <mxCell id="HzYAhnmNVsuKHYbPRYyc-84" value="" style="endArrow=classic;html=1;rounded=0;exitX=0;exitY=1;exitDx=0;exitDy=0;entryX=1;entryY=1;entryDx=0;entryDy=0;curved=1;" edge="1" parent="1" source="HzYAhnmNVsuKHYbPRYyc-81" target="HzYAhnmNVsuKHYbPRYyc-77">
          <mxGeometry width="50" height="50" relative="1" as="geometry">
            <mxPoint x="490" y="1100" as="sourcePoint" />
            <mxPoint x="540" y="1050" as="targetPoint" />
            <Array as="points">
              <mxPoint x="610" y="1090" />
            </Array>
          </mxGeometry>
        </mxCell>
        <mxCell id="HzYAhnmNVsuKHYbPRYyc-85" value="Return Result" style="text;html=1;align=center;verticalAlign=middle;whiteSpace=wrap;rounded=0;" vertex="1" parent="1">
          <mxGeometry x="580" y="1085" width="60" height="30" as="geometry" />
        </mxCell>
        <mxCell id="HzYAhnmNVsuKHYbPRYyc-87" value="" style="edgeStyle=segmentEdgeStyle;endArrow=classic;html=1;curved=0;rounded=0;endSize=8;startSize=8;exitX=1;exitY=0.5;exitDx=0;exitDy=0;entryX=0.5;entryY=1;entryDx=0;entryDy=0;" edge="1" parent="1" source="HzYAhnmNVsuKHYbPRYyc-79" target="HzYAhnmNVsuKHYbPRYyc-81">
          <mxGeometry width="50" height="50" relative="1" as="geometry">
            <mxPoint x="660" y="1170" as="sourcePoint" />
            <mxPoint x="710" y="1120" as="targetPoint" />
          </mxGeometry>
        </mxCell>
        <mxCell id="HzYAhnmNVsuKHYbPRYyc-88" value="Calculate Ratings" style="text;html=1;align=center;verticalAlign=middle;whiteSpace=wrap;rounded=0;" vertex="1" parent="1">
          <mxGeometry x="600" y="1150" width="100" height="30" as="geometry" />
        </mxCell>
        <mxCell id="HzYAhnmNVsuKHYbPRYyc-89" value="" style="endArrow=classic;html=1;rounded=0;exitX=0.75;exitY=1;exitDx=0;exitDy=0;entryX=1;entryY=1;entryDx=0;entryDy=0;" edge="1" parent="1" source="HzYAhnmNVsuKHYbPRYyc-81" target="HzYAhnmNVsuKHYbPRYyc-79">
          <mxGeometry width="50" height="50" relative="1" as="geometry">
            <mxPoint x="490" y="1110" as="sourcePoint" />
            <mxPoint x="540" y="1060" as="targetPoint" />
            <Array as="points">
              <mxPoint x="750" y="1207" />
            </Array>
          </mxGeometry>
        </mxCell>
        <mxCell id="HzYAhnmNVsuKHYbPRYyc-90" value="Return Ratings" style="text;html=1;align=center;verticalAlign=middle;whiteSpace=wrap;rounded=0;" vertex="1" parent="1">
          <mxGeometry x="607.5" y="1180" width="92.5" height="30" as="geometry" />
        </mxCell>
        <mxCell id="HzYAhnmNVsuKHYbPRYyc-91" value="" style="endArrow=classic;html=1;rounded=0;exitX=0;exitY=1;exitDx=0;exitDy=0;entryX=0.75;entryY=1;entryDx=0;entryDy=0;" edge="1" parent="1" source="HzYAhnmNVsuKHYbPRYyc-77" target="HzYAhnmNVsuKHYbPRYyc-58">
          <mxGeometry width="50" height="50" relative="1" as="geometry">
            <mxPoint x="480" y="1040" as="sourcePoint" />
            <mxPoint x="110" y="880" as="targetPoint" />
            <Array as="points">
              <mxPoint x="480" y="1100" />
              <mxPoint x="130" y="1100" />
            </Array>
          </mxGeometry>
        </mxCell>
        <mxCell id="HzYAhnmNVsuKHYbPRYyc-92" value="Return Result" style="text;html=1;align=center;verticalAlign=middle;whiteSpace=wrap;rounded=0;rotation=0;" vertex="1" parent="1">
          <mxGeometry x="140" y="1070" width="80" height="30" as="geometry" />
        </mxCell>
        <mxCell id="HzYAhnmNVsuKHYbPRYyc-94" value="" style="endArrow=classic;html=1;rounded=0;exitX=0;exitY=0.5;exitDx=0;exitDy=0;entryX=0.25;entryY=1;entryDx=0;entryDy=0;" edge="1" parent="1" source="HzYAhnmNVsuKHYbPRYyc-79" target="HzYAhnmNVsuKHYbPRYyc-58">
          <mxGeometry width="50" height="50" relative="1" as="geometry">
            <mxPoint x="480" y="970" as="sourcePoint" />
            <mxPoint x="530" y="920" as="targetPoint" />
            <Array as="points">
              <mxPoint x="70" y="1175" />
            </Array>
          </mxGeometry>
        </mxCell>
        <mxCell id="HzYAhnmNVsuKHYbPRYyc-95" value="Return Ratings" style="text;html=1;align=center;verticalAlign=middle;whiteSpace=wrap;rounded=0;" vertex="1" parent="1">
          <mxGeometry x="112.5" y="1150" width="87.5" height="30" as="geometry" />
        </mxCell>
        <mxCell id="HzYAhnmNVsuKHYbPRYyc-96" value="&lt;font style=&quot;font-size: 14px;&quot;&gt;User&lt;/font&gt;" style="rounded=0;whiteSpace=wrap;html=1;" vertex="1" parent="1">
          <mxGeometry x="40" y="1290" width="120" height="60" as="geometry" />
        </mxCell>
        <mxCell id="HzYAhnmNVsuKHYbPRYyc-97" value="4.1&lt;div&gt;Enter Comment data&lt;/div&gt;" style="ellipse;whiteSpace=wrap;html=1;aspect=fixed;" vertex="1" parent="1">
          <mxGeometry x="270" y="1275" width="90" height="90" as="geometry" />
        </mxCell>
        <mxCell id="HzYAhnmNVsuKHYbPRYyc-98" value="" style="endArrow=classic;html=1;rounded=0;exitX=1;exitY=0.5;exitDx=0;exitDy=0;entryX=0;entryY=0.5;entryDx=0;entryDy=0;" edge="1" parent="1" source="HzYAhnmNVsuKHYbPRYyc-96" target="HzYAhnmNVsuKHYbPRYyc-97">
          <mxGeometry width="50" height="50" relative="1" as="geometry">
            <mxPoint x="480" y="1300" as="sourcePoint" />
            <mxPoint x="530" y="1250" as="targetPoint" />
          </mxGeometry>
        </mxCell>
        <mxCell id="HzYAhnmNVsuKHYbPRYyc-99" value="" style="endArrow=classic;html=1;rounded=0;exitX=1;exitY=0.5;exitDx=0;exitDy=0;" edge="1" parent="1" source="HzYAhnmNVsuKHYbPRYyc-97" target="HzYAhnmNVsuKHYbPRYyc-100">
          <mxGeometry width="50" height="50" relative="1" as="geometry">
            <mxPoint x="480" y="1300" as="sourcePoint" />
            <mxPoint x="530" y="1250" as="targetPoint" />
          </mxGeometry>
        </mxCell>
        <mxCell id="HzYAhnmNVsuKHYbPRYyc-100" value="4.2&lt;div&gt;Post Comment&lt;/div&gt;" style="ellipse;whiteSpace=wrap;html=1;aspect=fixed;" vertex="1" parent="1">
          <mxGeometry x="443.75" y="1275" width="90" height="90" as="geometry" />
        </mxCell>
        <mxCell id="HzYAhnmNVsuKHYbPRYyc-101" value="Discuss Database" style="shape=partialRectangle;whiteSpace=wrap;html=1;left=0;right=0;fillColor=none;" vertex="1" parent="1">
          <mxGeometry x="720" y="1320" width="120" height="30" as="geometry" />
        </mxCell>
        <mxCell id="HzYAhnmNVsuKHYbPRYyc-102" value="4.3&lt;div&gt;Save to Database&lt;/div&gt;" style="ellipse;whiteSpace=wrap;html=1;aspect=fixed;" vertex="1" parent="1">
          <mxGeometry x="607.5" y="1275" width="90" height="90" as="geometry" />
        </mxCell>
        <mxCell id="HzYAhnmNVsuKHYbPRYyc-103" value="" style="endArrow=classic;html=1;rounded=0;exitX=1;exitY=0.5;exitDx=0;exitDy=0;entryX=0;entryY=0.5;entryDx=0;entryDy=0;" edge="1" parent="1" source="HzYAhnmNVsuKHYbPRYyc-100" target="HzYAhnmNVsuKHYbPRYyc-102">
          <mxGeometry width="50" height="50" relative="1" as="geometry">
            <mxPoint x="480" y="1310" as="sourcePoint" />
            <mxPoint x="530" y="1260" as="targetPoint" />
          </mxGeometry>
        </mxCell>
        <mxCell id="HzYAhnmNVsuKHYbPRYyc-105" value="" style="edgeStyle=segmentEdgeStyle;endArrow=classic;html=1;curved=0;rounded=0;endSize=8;startSize=8;exitX=1;exitY=0;exitDx=0;exitDy=0;entryX=0.5;entryY=0;entryDx=0;entryDy=0;" edge="1" parent="1" source="HzYAhnmNVsuKHYbPRYyc-102" target="HzYAhnmNVsuKHYbPRYyc-101">
          <mxGeometry width="50" height="50" relative="1" as="geometry">
            <mxPoint x="480" y="1310" as="sourcePoint" />
            <mxPoint x="590" y="1250" as="targetPoint" />
          </mxGeometry>
        </mxCell>
        <mxCell id="HzYAhnmNVsuKHYbPRYyc-107" value="4.4&lt;div&gt;Return Replies&lt;/div&gt;" style="ellipse;whiteSpace=wrap;html=1;aspect=fixed;" vertex="1" parent="1">
          <mxGeometry x="443.75" y="1390" width="90" height="90" as="geometry" />
        </mxCell>
        <mxCell id="HzYAhnmNVsuKHYbPRYyc-108" value="" style="endArrow=classic;html=1;rounded=0;exitX=0.5;exitY=1;exitDx=0;exitDy=0;entryX=1;entryY=0.5;entryDx=0;entryDy=0;" edge="1" parent="1" source="HzYAhnmNVsuKHYbPRYyc-101" target="HzYAhnmNVsuKHYbPRYyc-107">
          <mxGeometry width="50" height="50" relative="1" as="geometry">
            <mxPoint x="480" y="1310" as="sourcePoint" />
            <mxPoint x="530" y="1260" as="targetPoint" />
            <Array as="points">
              <mxPoint x="780" y="1435" />
            </Array>
          </mxGeometry>
        </mxCell>
        <mxCell id="HzYAhnmNVsuKHYbPRYyc-109" value="" style="endArrow=classic;html=1;rounded=0;exitX=0;exitY=0.5;exitDx=0;exitDy=0;entryX=0.5;entryY=1;entryDx=0;entryDy=0;" edge="1" parent="1" source="HzYAhnmNVsuKHYbPRYyc-107" target="HzYAhnmNVsuKHYbPRYyc-96">
          <mxGeometry width="50" height="50" relative="1" as="geometry">
            <mxPoint x="480" y="1310" as="sourcePoint" />
            <mxPoint x="530" y="1260" as="targetPoint" />
            <Array as="points">
              <mxPoint x="100" y="1435" />
            </Array>
          </mxGeometry>
        </mxCell>
        <mxCell id="HzYAhnmNVsuKHYbPRYyc-110" value="&lt;font style=&quot;font-size: 14px;&quot;&gt;Admin&lt;/font&gt;" style="rounded=0;whiteSpace=wrap;html=1;" vertex="1" parent="1">
          <mxGeometry x="40" y="1550" width="120" height="60" as="geometry" />
        </mxCell>
        <mxCell id="HzYAhnmNVsuKHYbPRYyc-116" style="edgeStyle=orthogonalEdgeStyle;rounded=0;orthogonalLoop=1;jettySize=auto;html=1;exitX=1;exitY=0.5;exitDx=0;exitDy=0;entryX=0;entryY=0.5;entryDx=0;entryDy=0;" edge="1" parent="1" source="HzYAhnmNVsuKHYbPRYyc-111" target="HzYAhnmNVsuKHYbPRYyc-113">
          <mxGeometry relative="1" as="geometry" />
        </mxCell>
        <mxCell id="HzYAhnmNVsuKHYbPRYyc-111" value="5.1&lt;div&gt;Select User&lt;/div&gt;" style="ellipse;whiteSpace=wrap;html=1;aspect=fixed;" vertex="1" parent="1">
          <mxGeometry x="270" y="1530" width="90" height="90" as="geometry" />
        </mxCell>
        <mxCell id="HzYAhnmNVsuKHYbPRYyc-112" value="" style="endArrow=classic;html=1;rounded=0;exitX=1;exitY=0.5;exitDx=0;exitDy=0;" edge="1" parent="1" source="HzYAhnmNVsuKHYbPRYyc-110">
          <mxGeometry width="50" height="50" relative="1" as="geometry">
            <mxPoint x="480" y="1630" as="sourcePoint" />
            <mxPoint x="270" y="1580" as="targetPoint" />
          </mxGeometry>
        </mxCell>
        <mxCell id="HzYAhnmNVsuKHYbPRYyc-113" value="5.2&lt;div&gt;Select Operation&lt;/div&gt;" style="ellipse;whiteSpace=wrap;html=1;aspect=fixed;" vertex="1" parent="1">
          <mxGeometry x="430" y="1530" width="90" height="90" as="geometry" />
        </mxCell>
        <mxCell id="HzYAhnmNVsuKHYbPRYyc-117" value="" style="endArrow=classic;html=1;rounded=0;exitX=1;exitY=0.5;exitDx=0;exitDy=0;" edge="1" parent="1" source="HzYAhnmNVsuKHYbPRYyc-113">
          <mxGeometry width="50" height="50" relative="1" as="geometry">
            <mxPoint x="480" y="1630" as="sourcePoint" />
            <mxPoint x="600" y="1575" as="targetPoint" />
          </mxGeometry>
        </mxCell>
        <mxCell id="HzYAhnmNVsuKHYbPRYyc-123" style="edgeStyle=orthogonalEdgeStyle;rounded=0;orthogonalLoop=1;jettySize=auto;html=1;exitX=1;exitY=0.5;exitDx=0;exitDy=0;entryX=0.5;entryY=1;entryDx=0;entryDy=0;" edge="1" parent="1" source="HzYAhnmNVsuKHYbPRYyc-118" target="HzYAhnmNVsuKHYbPRYyc-121">
          <mxGeometry relative="1" as="geometry" />
        </mxCell>
        <mxCell id="HzYAhnmNVsuKHYbPRYyc-118" value="5.3&lt;div&gt;Enter Details&lt;/div&gt;" style="ellipse;whiteSpace=wrap;html=1;aspect=fixed;" vertex="1" parent="1">
          <mxGeometry x="430" y="1680" width="90" height="90" as="geometry" />
        </mxCell>
        <mxCell id="HzYAhnmNVsuKHYbPRYyc-119" value="" style="endArrow=classic;html=1;rounded=0;exitX=0.5;exitY=1;exitDx=0;exitDy=0;entryX=0.5;entryY=0;entryDx=0;entryDy=0;" edge="1" parent="1" source="HzYAhnmNVsuKHYbPRYyc-113" target="HzYAhnmNVsuKHYbPRYyc-118">
          <mxGeometry width="50" height="50" relative="1" as="geometry">
            <mxPoint x="480" y="1630" as="sourcePoint" />
            <mxPoint x="530" y="1580" as="targetPoint" />
          </mxGeometry>
        </mxCell>
        <mxCell id="HzYAhnmNVsuKHYbPRYyc-120" value="Add/Edit User" style="text;html=1;align=center;verticalAlign=middle;whiteSpace=wrap;rounded=0;" vertex="1" parent="1">
          <mxGeometry x="473.75" y="1635" width="60" height="30" as="geometry" />
        </mxCell>
        <mxCell id="HzYAhnmNVsuKHYbPRYyc-121" value="5.4&lt;div&gt;Update Database&lt;/div&gt;" style="ellipse;whiteSpace=wrap;html=1;aspect=fixed;" vertex="1" parent="1">
          <mxGeometry x="600" y="1530" width="90" height="90" as="geometry" />
        </mxCell>
        <mxCell id="HzYAhnmNVsuKHYbPRYyc-124" value="User Database" style="shape=partialRectangle;whiteSpace=wrap;html=1;left=0;right=0;fillColor=none;" vertex="1" parent="1">
          <mxGeometry x="690" y="1690" width="120" height="30" as="geometry" />
        </mxCell>
        <mxCell id="HzYAhnmNVsuKHYbPRYyc-125" value="" style="edgeStyle=segmentEdgeStyle;endArrow=classic;html=1;curved=0;rounded=0;endSize=8;startSize=8;exitX=1;exitY=0.5;exitDx=0;exitDy=0;" edge="1" parent="1" source="HzYAhnmNVsuKHYbPRYyc-121">
          <mxGeometry width="50" height="50" relative="1" as="geometry">
            <mxPoint x="745" y="1570" as="sourcePoint" />
            <mxPoint x="750" y="1690" as="targetPoint" />
            <Array as="points">
              <mxPoint x="750" y="1575" />
              <mxPoint x="750" y="1690" />
            </Array>
          </mxGeometry>
        </mxCell>
        <mxCell id="HzYAhnmNVsuKHYbPRYyc-129" value="5.5&lt;div&gt;Database Update Status&lt;/div&gt;" style="ellipse;whiteSpace=wrap;html=1;aspect=fixed;" vertex="1" parent="1">
          <mxGeometry x="600" y="1760" width="90" height="90" as="geometry" />
        </mxCell>
        <mxCell id="HzYAhnmNVsuKHYbPRYyc-130" value="" style="endArrow=classic;html=1;rounded=0;entryX=1;entryY=0.5;entryDx=0;entryDy=0;exitX=0.5;exitY=1;exitDx=0;exitDy=0;" edge="1" parent="1" source="HzYAhnmNVsuKHYbPRYyc-124" target="HzYAhnmNVsuKHYbPRYyc-129">
          <mxGeometry width="50" height="50" relative="1" as="geometry">
            <mxPoint x="780" y="1820" as="sourcePoint" />
            <mxPoint x="830" y="1770" as="targetPoint" />
            <Array as="points">
              <mxPoint x="750" y="1805" />
            </Array>
          </mxGeometry>
        </mxCell>
        <mxCell id="HzYAhnmNVsuKHYbPRYyc-131" value="" style="endArrow=classic;html=1;rounded=0;exitX=0;exitY=0.5;exitDx=0;exitDy=0;entryX=0.5;entryY=1;entryDx=0;entryDy=0;" edge="1" parent="1" source="HzYAhnmNVsuKHYbPRYyc-129" target="HzYAhnmNVsuKHYbPRYyc-110">
          <mxGeometry width="50" height="50" relative="1" as="geometry">
            <mxPoint x="480" y="1630" as="sourcePoint" />
            <mxPoint x="530" y="1580" as="targetPoint" />
            <Array as="points">
              <mxPoint x="100" y="1810" />
            </Array>
          </mxGeometry>
        </mxCell>
        <mxCell id="HzYAhnmNVsuKHYbPRYyc-132" value="&lt;font style=&quot;font-size: 14px;&quot;&gt;Admin&lt;/font&gt;" style="rounded=0;whiteSpace=wrap;html=1;" vertex="1" parent="1">
          <mxGeometry x="40" y="1890" width="120" height="60" as="geometry" />
        </mxCell>
        <mxCell id="HzYAhnmNVsuKHYbPRYyc-135" value="" style="endArrow=classic;html=1;rounded=0;exitX=1;exitY=0.5;exitDx=0;exitDy=0;entryX=0;entryY=0.5;entryDx=0;entryDy=0;" edge="1" parent="1" source="HzYAhnmNVsuKHYbPRYyc-132" target="HzYAhnmNVsuKHYbPRYyc-136">
          <mxGeometry width="50" height="50" relative="1" as="geometry">
            <mxPoint x="480" y="1970" as="sourcePoint" />
            <mxPoint x="270" y="1920" as="targetPoint" />
          </mxGeometry>
        </mxCell>
        <mxCell id="HzYAhnmNVsuKHYbPRYyc-136" value="5.1&lt;div&gt;Select Operation&lt;/div&gt;" style="ellipse;whiteSpace=wrap;html=1;aspect=fixed;" vertex="1" parent="1">
          <mxGeometry x="280" y="1875" width="90" height="90" as="geometry" />
        </mxCell>
        <mxCell id="HzYAhnmNVsuKHYbPRYyc-138" style="edgeStyle=orthogonalEdgeStyle;rounded=0;orthogonalLoop=1;jettySize=auto;html=1;exitX=1;exitY=0.5;exitDx=0;exitDy=0;entryX=0.5;entryY=1;entryDx=0;entryDy=0;" edge="1" parent="1" source="HzYAhnmNVsuKHYbPRYyc-139" target="HzYAhnmNVsuKHYbPRYyc-142">
          <mxGeometry relative="1" as="geometry" />
        </mxCell>
        <mxCell id="HzYAhnmNVsuKHYbPRYyc-139" value="5.2&lt;div&gt;Enter Details&lt;/div&gt;" style="ellipse;whiteSpace=wrap;html=1;aspect=fixed;" vertex="1" parent="1">
          <mxGeometry x="280" y="2010" width="90" height="90" as="geometry" />
        </mxCell>
        <mxCell id="HzYAhnmNVsuKHYbPRYyc-140" value="" style="endArrow=classic;html=1;rounded=0;exitX=0.5;exitY=1;exitDx=0;exitDy=0;entryX=0.5;entryY=0;entryDx=0;entryDy=0;" edge="1" parent="1" source="HzYAhnmNVsuKHYbPRYyc-136" target="HzYAhnmNVsuKHYbPRYyc-139">
          <mxGeometry width="50" height="50" relative="1" as="geometry">
            <mxPoint x="480" y="1970" as="sourcePoint" />
            <mxPoint x="530" y="1920" as="targetPoint" />
          </mxGeometry>
        </mxCell>
        <mxCell id="HzYAhnmNVsuKHYbPRYyc-141" value="Add/Edit Problem" style="text;html=1;align=center;verticalAlign=middle;whiteSpace=wrap;rounded=0;" vertex="1" parent="1">
          <mxGeometry x="325" y="1975" width="60" height="30" as="geometry" />
        </mxCell>
        <mxCell id="HzYAhnmNVsuKHYbPRYyc-142" value="5.3&lt;div&gt;Update Database&lt;/div&gt;" style="ellipse;whiteSpace=wrap;html=1;aspect=fixed;" vertex="1" parent="1">
          <mxGeometry x="440" y="1875" width="90" height="90" as="geometry" />
        </mxCell>
        <mxCell id="HzYAhnmNVsuKHYbPRYyc-143" value="" style="edgeStyle=segmentEdgeStyle;endArrow=classic;html=1;curved=0;rounded=0;endSize=8;startSize=8;exitX=1;exitY=0.5;exitDx=0;exitDy=0;" edge="1" parent="1" source="HzYAhnmNVsuKHYbPRYyc-142">
          <mxGeometry width="50" height="50" relative="1" as="geometry">
            <mxPoint x="745" y="1910" as="sourcePoint" />
            <mxPoint x="750" y="2030" as="targetPoint" />
            <Array as="points">
              <mxPoint x="750" y="1915" />
              <mxPoint x="750" y="2030" />
            </Array>
          </mxGeometry>
        </mxCell>
        <mxCell id="HzYAhnmNVsuKHYbPRYyc-144" value="5.4&lt;div&gt;Database Update Status&lt;/div&gt;" style="ellipse;whiteSpace=wrap;html=1;aspect=fixed;" vertex="1" parent="1">
          <mxGeometry x="600" y="2100" width="90" height="90" as="geometry" />
        </mxCell>
        <mxCell id="HzYAhnmNVsuKHYbPRYyc-145" value="" style="endArrow=classic;html=1;rounded=0;entryX=1;entryY=0.5;entryDx=0;entryDy=0;exitX=0.5;exitY=1;exitDx=0;exitDy=0;" edge="1" parent="1" target="HzYAhnmNVsuKHYbPRYyc-144">
          <mxGeometry width="50" height="50" relative="1" as="geometry">
            <mxPoint x="750" y="2060" as="sourcePoint" />
            <mxPoint x="830" y="2110" as="targetPoint" />
            <Array as="points">
              <mxPoint x="750" y="2145" />
            </Array>
          </mxGeometry>
        </mxCell>
        <mxCell id="HzYAhnmNVsuKHYbPRYyc-146" value="" style="endArrow=classic;html=1;rounded=0;exitX=0;exitY=0.5;exitDx=0;exitDy=0;entryX=0.5;entryY=1;entryDx=0;entryDy=0;" edge="1" parent="1" source="HzYAhnmNVsuKHYbPRYyc-144" target="HzYAhnmNVsuKHYbPRYyc-132">
          <mxGeometry width="50" height="50" relative="1" as="geometry">
            <mxPoint x="480" y="1970" as="sourcePoint" />
            <mxPoint x="530" y="1920" as="targetPoint" />
            <Array as="points">
              <mxPoint x="100" y="2150" />
            </Array>
          </mxGeometry>
        </mxCell>
        <mxCell id="HzYAhnmNVsuKHYbPRYyc-147" value="Problems Database" style="shape=partialRectangle;whiteSpace=wrap;html=1;left=0;right=0;fillColor=none;" vertex="1" parent="1">
          <mxGeometry x="690" y="2030" width="120" height="30" as="geometry" />
        </mxCell>
        <mxCell id="HzYAhnmNVsuKHYbPRYyc-148" value="" style="endArrow=classic;html=1;rounded=0;exitX=1;exitY=0.5;exitDx=0;exitDy=0;entryX=0;entryY=0.5;entryDx=0;entryDy=0;" edge="1" parent="1" source="HzYAhnmNVsuKHYbPRYyc-136" target="HzYAhnmNVsuKHYbPRYyc-142">
          <mxGeometry width="50" height="50" relative="1" as="geometry">
            <mxPoint x="430" y="2010" as="sourcePoint" />
            <mxPoint x="480" y="1960" as="targetPoint" />
          </mxGeometry>
        </mxCell>
      </root>
    </mxGraphModel>
  </diagram>
</mxfile>
